<svg xmlns="http://www.w3.org/2000/svg" viewBox="0 0 609.1 1261.5"><defs><style>.cls-1{fill:#e56500;}.cls-2{fill:#ffdd65;}.cls-3{fill:#ba4d02;}.cls-4,.cls-9{fill:#fff;}.cls-4{stroke:#231f20;stroke-miterlimit:10;}.cls-5{fill:#1d1d1d;}.cls-6{fill:#ffd446;}.cls-7{fill:#3c3c3c;}.cls-8{fill:#ffae00;}.cls-10{fill:#ff8500;}.cls-11{fill:#343434;}</style></defs><g id="Camada_2" data-name="Camada 2"><g id="Layer_1" data-name="Layer 1"><polygon class="cls-1" points="192.7 606.2 295.8 632.1 295.8 578 204.1 562.3 192.7 606.2"/><polygon class="cls-2" points="252.3 556.3 244.3 642 281.6 654.6 287.9 562.3 252.3 556.3"/><path class="cls-3" d="M179.6,558.9a11.05,11.05,0,0,1-13.6,8l-1.4-.4,7.8-30.3L160.2,533a13.33,13.33,0,0,0-16.3,9.6L135,577.2a13.33,13.33,0,0,0,9.6,16.3L192.8,606l5.7-22A47.05,47.05,0,0,1,179.6,558.9Z"/><path class="cls-4" d="M365,49c1.6.7,3.2,1.4,4.7,2.1C368.1,50.4,366.5,49.7,365,49Z"/><rect class="cls-5" x="350.71" y="31.89" width="43.9" height="6.4" transform="translate(213.72 373.97) rotate(-70.25)"/><rect class="cls-5" x="77.43" y="352.6" width="343.21" height="9.1" transform="translate(-171.26 470.86) rotate(-70.25)"/><path class="cls-6" d="M385.1.3a4.67,4.67,0,0,1,2.8,6l-3.5,9.8L375.6,13l3.5-9.8A4.64,4.64,0,0,1,385.1.3Z"/><path class="cls-7" d="M123.3,616.4c20,7.6,42.6-3.5,49.9-23.7l25.6-71.3-15.5-5.6-25.7,71.5c-4,11-15.8,17.5-27.1,14.1a21.82,21.82,0,0,1-14.2-28.2l2.4-6.6a8.21,8.21,0,0,0-5-10.5h0a8.21,8.21,0,0,0-10.5,5l-2.4,6.6A38.44,38.44,0,0,0,123.3,616.4Z"/><path class="cls-8" d="M369.7,51.1C438.4,80.7,553,116.3,609.1,326.6c0,0-102.8-55.1-150.9-37.3C456.1,236.1,469.3,96.7,369.7,51.1Z"/><path class="cls-8" d="M360,47.6C288.1,26.8,177.1-18.7,0,107.9c0,0,114.3,22.9,140.2,67.2C175.7,135.4,254.2,19.5,360,47.6Z"/><path class="cls-6" d="M360,47.6c1.7.5,3.3,1,5,1.4,1.5.7,3.1,1.4,4.7,2.1,99.6,45.6,86.4,185,88.6,238.1-18.2-20.7-107.4-55.4-153.7-72S167.4,170.6,140.2,175C175.7,135.4,254.2,19.5,360,47.6Z"/><path class="cls-5" d="M162.3,1241.1l4.6,8.6h80.6l-10.9-45.2-51.7-4.2-43.2,28.5A23.07,23.07,0,0,1,162.3,1241.1Z"/><path class="cls-9" d="M162.3,1241.1a23.38,23.38,0,0,0-20.6-12.3h-1.1a32.71,32.71,0,0,0-30.5,20.9h56.7Z"/><polygon class="cls-9" points="239.2 1178.9 188.5 1175.3 185 1200.3 236.6 1204.5 239.2 1178.9"/><polygon class="cls-1" points="244 1131.7 195.5 1125.4 188.5 1175.3 239.2 1178.9 244 1131.7"/><path class="cls-9" d="M166.9,1249.7H110.2a32.58,32.58,0,0,0-2.2,11.8H250.4l-2.8-11.8Z"/><path class="cls-7" d="M505.4,1208.2l9.4,2.7,56-58-40.1-23.6-38.9,34.2-9.6,50.9A23.6,23.6,0,0,1,505.4,1208.2Z"/><path class="cls-9" d="M505.4,1208.2a23.26,23.26,0,0,0-23.2,6.2l-.7.8a32.52,32.52,0,0,0-6.1,36.5l39.4-40.8Z"/><polygon class="cls-9" points="514.2 1109.7 476.4 1143.7 491.9 1163.6 530.8 1129.3 514.2 1109.7"/><polygon class="cls-4" points="483.6 1073.5 445.4 1103.9 476.4 1143.7 514.2 1109.7 483.6 1073.5"/><path class="cls-9" d="M514.8,1210.9l-39.4,40.8a32.51,32.51,0,0,0,6.9,9.7l45.3-46.9,53.6-55.5-10.4-6.1Z"/><path class="cls-5" d="M269.3,679l-76,269.8-16.2,217.9h81.5c67.5-152,27-212.9,27-212.9L414.5,763.1Z"/><path class="cls-7" d="M275.5,659l34,246.3a194.74,194.74,0,0,0,39.4,93.2l121,154.9,57-40.1c-31.6-158.2-112.4-192-112.4-192l31.6-246.2Z"/><path class="cls-9" d="M426.4,522.5c-2-28.1-4.1-56.4-12.5-83.5s-23.9-53.2-48.4-70.7a67.28,67.28,0,0,0-41.8-11.9l-53.8,39.9c-27.4,59.6,25.3,180.5-10.4,297.9,57.4,26.6,127.6,30.8,186.8,7.5C442,643.7,430.5,580.6,426.4,522.5Z"/><path class="cls-10" d="M269.7,396.3l53.8-39.9a66.34,66.34,0,0,0-27.9,7.5c-27.3,14.5-40.8,44.1-43,72.6s4.9,56.7,9.6,84.9a484.8,484.8,0,0,1-2.9,172.8C295.1,576.8,242.3,455.9,269.7,396.3Z"/><path class="cls-10" d="M485.6,740.9a151.91,151.91,0,0,1-91,26.3c-32.1-1.3-62.6-17.6-87.5-37.8,15.6-55.3,7.8-114.2-3.4-170.6s-25.6-112.9-23-170.2l54.9-31.4c48.6,0,78.1,53.3,93.6,99.3s17.7,95.3,24.9,143.3C461,645.2,469.7,697.9,485.6,740.9Z"/><polygon class="cls-8" points="288 387.3 280 372.7 263 385.3 282.4 393.4 288 387.3"/><polygon class="cls-11" points="263 385.3 269.4 407.4 282.4 393.4 263 385.3"/><path class="cls-3" d="M305.6,332.2c-2.8-4.1-5.6-8.3-8.6-12.4-12.7,9.5-26.8,20.3-39.4,29.8a121.43,121.43,0,0,1,16.7,27.9C288.8,366.3,299.3,349.6,305.6,332.2Z"/><path class="cls-1" d="M305.6,332.2c-6.3,17.4-16.8,34.1-31.3,45.2a120.39,120.39,0,0,1,7.5,23.4c17.2-9.9,34.5-22.3,43-40.2C318,351.1,311.9,341.7,305.6,332.2Z"/><path class="cls-11" d="M225.1,307.7c-7-1.3-13.9-3.3-20-6.9s-11.4-8.9-14-15.5-2.2-14.5,1.8-20.3c-5-2.1-8.4-8.3-8.2-13.7a13.73,13.73,0,0,1,9.1-12.2c-1-5.4,2.7-11.4,7.6-13.9a13.1,13.1,0,0,1,15.2,2.7,30.09,30.09,0,0,1,53.2-3.4c4.3-6,11.7-10.6,19.1-9.7a21.17,21.17,0,0,1,16.7,13,14.66,14.66,0,0,1,13.1,24.4c6.6,2.6,11,11.3,11,18.4a18.11,18.11,0,0,1-11.5,16.5c3.9,10.6-1.4,23.8-11.6,28.7C280.8,328,253.2,312.9,225.1,307.7Z"/><path class="cls-1" d="M293,313.6c-1.6-5-3.2-10.2-2.5-15.5s4.1-10.5,9.2-11.5a12.07,12.07,0,0,1,10.4,3.6,22,22,0,0,1,5.3,10,26.48,26.48,0,0,1,.8,12.8,15.66,15.66,0,0,1-7.1,10.4c-3.7,2.2-7.5,2.8-10.9.1a111.63,111.63,0,0,1-31,38.5c-4.7,3.7-9.9,7-15.8,7.6-6.8.7-13.6-2.6-18.6-7.3a83.79,83.79,0,0,1-13.6-17.2l-12.7,2.7a69.61,69.61,0,0,1,5.8-32.5c-1.8-11-3.7-22.1-5.5-33.1,5.7,2,12,1.1,17.6-1.3a25,25,0,0,0,12.8-12.4c4.5,3.1,11.6,2.8,16.7.8.1,5.7,3.9,10.7,8.2,14.3A20.25,20.25,0,0,0,278,288C279.3,297.2,284.9,308.9,293,313.6Z"/><path class="cls-3" d="M309.6,306.7a12.33,12.33,0,0,1-.3,4.7,4.11,4.11,0,0,1-7,2.2,8.71,8.71,0,0,1-2.2-3.7,16,16,0,0,1,2.6-14.3,13.09,13.09,0,0,0-.1,8.3C304.8,304.7,307.5,306,309.6,306.7Z"/><polygon class="cls-2" points="275.5 384.4 283.8 413 335.6 357.3 323.2 350.4 275.5 384.4"/><path class="cls-8" d="M446.2,705.2c-24.7-1.7-48.6-12.6-66.9-29.3,16-36.3,24.6-73.9,28.6-113.3q-37.5-58.2-75-116.3c-6.7-10.3-1.9-25.8,5.7-35.5A38,38,0,0,1,371,396.6c22.8,2,38.2,23.5,49.8,43.2a1161.56,1161.56,0,0,1,61,119.1C470.3,606.5,457.7,657.7,446.2,705.2Z"/><path class="cls-1" d="M388.3,677.5q-20.55,48-41.2,96.1c5.2,20.2,28.4,37.1,28.4,37.1L436,695.8Z"/><path class="cls-2" d="M449,728c2.6-10.6,4.1-22.5,6.7-33.1-28.2-4-55.2-14.1-77.8-31.4L364.7,689C385.7,712.3,417.7,727,449,728Z"/><path class="cls-1" d="M166,567a11.13,11.13,0,0,0,13.6-8,49.42,49.42,0,0,0,18.8,25.3l9.3-35.8a13.33,13.33,0,0,0-9.6-16.3l-12.8-3.3a10.42,10.42,0,0,0-12.8,7.6l-7.8,30.3Z"/></g></g></svg>